<?xml version="1.0" encoding="UTF-8" standalone="no"?>
<svg
   xmlns:dc="http://purl.org/dc/elements/1.1/"
   xmlns:cc="http://creativecommons.org/ns#"
   xmlns:rdf="http://www.w3.org/1999/02/22-rdf-syntax-ns#"
   xmlns:svg="http://www.w3.org/2000/svg"
   xmlns="http://www.w3.org/2000/svg"
   xmlns:sodipodi="http://sodipodi.sourceforge.net/DTD/sodipodi-0.dtd"
   xmlns:inkscape="http://www.inkscape.org/namespaces/inkscape"
   height="131.64702pt"
   viewBox="-128 0 663.69843 131.64702"
   width="664.99725pt"
   id="svg2"
   version="1.1"
   inkscape:version="0.91 r13725"
   sodipodi:docname="logo-h.svg">
  <metadata
     id="metadata14">
    <rdf:RDF>
      <cc:Work
         rdf:about="">
        <dc:format>image/svg+xml</dc:format>
        <dc:type
           rdf:resource="http://purl.org/dc/dcmitype/StillImage" />
        <dc:title></dc:title>
      </cc:Work>
    </rdf:RDF>
  </metadata>
  <defs
     id="defs12" />
  <sodipodi:namedview
     pagecolor="#ffffff"
     bordercolor="#666666"
     borderopacity="1"
     objecttolerance="10"
     gridtolerance="10"
     guidetolerance="10"
     inkscape:pageopacity="0"
     inkscape:pageshadow="2"
     inkscape:window-width="1920"
     inkscape:window-height="1056"
     id="namedview10"
     showgrid="false"
     fit-margin-top="0"
     fit-margin-left="0"
     fit-margin-right="0"
     fit-margin-bottom="0"
     inkscape:zoom="0.74308979"
     inkscape:cx="560.44691"
     inkscape:cy="194.5145"
     inkscape:window-x="0"
     inkscape:window-y="24"
     inkscape:window-maximized="1"
     inkscape:current-layer="layer2" />
  <path
     style="opacity:1;fill:#ff8080;fill-opacity:1;fill-rule:nonzero;stroke:#ffffff;stroke-width:0.18058133;stroke-linecap:round;stroke-linejoin:miter;stroke-miterlimit:4;stroke-dasharray:none;stroke-opacity:1"
     d="M 0.38716888,64.561096 A 64.470802,64.470802 0 0 1 -64.083633,129.0319 64.470802,64.470802 0 0 1 -128.55444,64.561096 64.470802,64.470802 0 0 1 -64.083633,0.09029388 64.470802,64.470802 0 0 1 0.38716888,64.561096 Z"
     id="path4241" />
  <g
     inkscape:groupmode="layer"
     id="layer1"
     inkscape:label="Layer 1"
     transform="translate(-28.962423,-72.181571)"
     style="display:inline" />
  <g
     inkscape:groupmode="layer"
     id="layer2"
     inkscape:label="Layer 2"
     transform="translate(-28.962423,-72.181571)"
     style="display:inline">
    <path
       d="m -48.614779,101.26275 25.0003,0 c 3.72738,0 6.76049,-4.103264 6.76049,-9.147794 -9.1e-4,-5.04362 -3.03378,-9.14687 -6.76049,-9.14687 l -25.0003,0 c -3.72738,0 -6.75981,4.10325 -6.76048,9.14778 0,5.04362 3.0331,9.146884 6.76048,9.146884 z m 0,0"
       id="path4-0"
       inkscape:connector-curvature="0"
       style="fill:#ffffff" />
    <path
       d="m -23.614479,108.28123 -25.0003,0 c -1.06033,0 -2.08758,-0.19009 -3.06686,-0.54192 -0.43427,2.63101 -1.13936,5.82497 -1.99843,8.61499 l -0.13643,0.44323 35.40375,0 -0.13643,-0.44323 c -0.85908,-2.79002 -1.56417,-5.98398 -1.99843,-8.61499 -0.97929,0.35183 -2.00654,0.54192 -3.06687,0.54192 z m 0,0"
       id="path6-2"
       inkscape:connector-curvature="0"
       style="fill:#ffffff" />
    <path
       d="m -16.323149,123.81601 -39.58296,0 c -1.30009,5.19897 -3.70957,12.6736 -2.24696,17.16329 4.34798,13.34673 7.65865,27.39528 0,48.86525 -2.2861,6.40874 4.27849,12.90561 9.53829,12.90561 l 25.0003,0 c 5.25981,0 11.6857,-6.4096 9.5383,-12.90561 -5.38452,-16.28842 -6.78794,-32.57684 0,-48.86525 1.78106,-4.27387 -0.94688,-11.96432 -2.24697,-17.16329 z"
       id="path8-5"
       inkscape:connector-curvature="0"
       sodipodi:nodetypes="ccssssssc"
       style="fill:#ffffff" />
  </g>
  <g
     style="font-style:normal;font-variant:normal;font-weight:normal;font-stretch:normal;font-size:7.76733971px;line-height:125%;font-family:Pacifico;-inkscape-font-specification:Pacifico;text-align:start;letter-spacing:0px;word-spacing:0px;writing-mode:lr-tb;text-anchor:start;fill:#ff8080;fill-opacity:1;stroke:none;stroke-width:1px;stroke-linecap:butt;stroke-linejoin:miter;stroke-opacity:1"
     id="text4316">
    <path
       d="m 28.782685,46.691746 q 0,2.503146 1.441205,4.475322 1.479132,1.972176 3.868499,3.678867 2.427294,1.668764 5.461411,3.185823 3.072043,1.517058 6.257866,3.147896 3.223749,1.592912 6.257866,3.451308 3.072044,1.82047 5.461411,4.133984 2.427293,2.313515 3.868499,5.233852 1.479132,2.920338 1.479132,6.675057 0,3.413382 -1.099868,6.295793 -1.099867,2.844485 -3.034117,5.120072 -1.896323,2.275588 -4.513249,4.020205 -2.616925,1.744618 -5.651042,2.882411 -3.034117,1.137794 -6.371646,1.706694 -3.337528,0.60682 -6.712984,0.60682 -4.740807,0 -9.21613,-1.17572 -4.475322,-1.137794 -7.964557,-3.489234 -3.489234,-2.313514 -5.613116,-5.802749 -2.085955,-3.527161 -2.085955,-8.230042 0,-2.427294 0.758529,-4.247764 0.796456,-1.858396 1.934249,-3.072043 1.175721,-1.251573 2.541073,-1.858397 1.365353,-0.64475 2.541073,-0.64475 1.213647,0 2.010103,0.682677 0.834382,0.64475 0.834382,2.048029 0,0.644749 -0.151706,1.365352 -0.151706,0.720603 -0.341338,1.592912 -0.151706,0.834382 -0.303412,1.858396 -0.151706,1.024015 -0.151706,2.237662 0,2.654852 1.213647,4.589101 1.213647,1.93425 3.223749,3.185823 2.010103,1.251573 4.627029,1.858397 2.616926,0.606823 5.423484,0.606823 3.299602,0 6.599204,-0.796456 3.299602,-0.796455 5.916528,-2.35144 2.616926,-1.554985 4.247764,-3.792646 1.630838,-2.275588 1.630838,-5.195926 0,-2.692778 -1.479132,-4.81666 -1.441206,-2.123882 -3.8685,-3.906426 -2.389367,-1.82047 -5.46141,-3.413381 -3.072043,-1.592912 -6.257866,-3.22375 -3.185823,-1.630837 -6.257866,-3.413381 -3.072044,-1.82047 -5.499337,-3.982279 -2.389367,-2.161808 -3.868499,-4.81666 -1.441206,-2.692779 -1.441206,-6.10616 0,-3.185823 1.517059,-6.257867 1.554985,-3.109969 4.627028,-5.537263 3.10997,-2.46522 7.736998,-3.982278 4.627028,-1.517059 10.846968,-1.517059 3.944352,0 7.699072,1.17572 3.792646,1.175721 6.75091,3.337529 2.958264,2.161808 4.740808,5.157999 1.82047,2.99619 1.82047,6.637131 0,2.161808 -0.758529,4.437396 -0.720603,2.275587 -2.351441,4.740807 -1.592911,2.389367 -3.489235,3.565088 -1.858396,1.137793 -3.375455,1.137793 -1.137793,0 -1.858396,-0.644749 -0.720603,-0.682677 -0.720603,-2.010103 0,-0.986088 0.455118,-2.313514 0.455117,-1.365353 1.554984,-3.10997 1.024015,-1.668764 1.517059,-3.10997 0.493044,-1.479132 0.493044,-2.730705 0,-1.934249 -1.061941,-3.375455 -1.024014,-1.479132 -2.882411,-2.46522 -1.82047,-0.986088 -4.39947,-1.479132 -2.578999,-0.493044 -5.651042,-0.493044 -3.413382,0 -5.954455,0.796456 -2.503146,0.758529 -4.209837,2.010102 -1.668764,1.213647 -2.503147,2.730705 -0.796455,1.517059 -0.796455,2.996191 z"
       style="font-style:normal;font-variant:normal;font-weight:normal;font-stretch:normal;font-size:77.67339325px;font-family:Pacifico;-inkscape-font-specification:Pacifico;fill:#ff8080;fill-opacity:1"
       id="path4141" />
    <path
       d="m 86.999807,89.359015 q 0,-0.493044 0.07585,-1.403279 0.07585,-0.910235 0.227559,-2.085955 0.151705,-1.175721 0.341338,-2.46522 0.189632,-1.327426 0.379264,-2.616926 0.417191,-3.034117 1.024015,-6.523352 l -0.568897,0 q -0.455118,0.568897 -1.061941,1.706691 -0.568897,1.137794 -1.630838,3.337529 -1.061941,2.199735 -2.730705,5.726896 -1.630838,3.489234 -4.247764,8.761012 -0.758529,1.554985 -1.782543,2.123882 -0.986088,0.53097 -2.199735,0.53097 -1.554985,0 -2.503147,-0.644749 -0.948161,-0.682677 -1.479132,-1.782544 -0.493044,-1.137794 -0.682676,-2.541073 -0.151706,-1.441206 -0.151706,-2.958264 0,-1.554985 0.189632,-3.678867 0.189633,-2.123882 0.493044,-4.475322 0.303412,-2.351441 0.872309,-5.347631 0.606823,-3.034117 1.024015,-5.271779 0.455117,-2.237661 0.910235,-4.096057 0.455117,-1.858397 0.834382,-3.034117 0.379264,-1.213647 0.720603,-1.93425 0.341338,-0.720603 0.758529,-1.099867 0.455117,-0.417191 1.061941,-0.530971 0.606823,-0.151706 1.554985,-0.151706 1.441205,0 2.237661,0.11378 0.834382,0.07585 1.213647,0.455117 0.417191,0.341339 0.493044,1.024015 0.07585,0.682676 0.07585,1.858396 0,0.64475 -0.07585,1.479132 -0.03793,0.834383 -0.151706,1.782544 -0.07585,0.948162 -0.227559,1.93425 -0.265485,1.896323 -0.303412,1.972176 -0.53097,2.578999 -1.099867,5.764822 l 0.417191,0.455117 q 0.07585,-0.113779 0.986088,-2.010102 0.948162,-1.896323 2.010102,-3.75472 1.099868,-1.858396 2.351441,-3.868499 1.251573,-2.048029 2.389367,-3.603014 1.099868,-1.554985 2.313514,-2.578999 1.251574,-1.024015 2.958264,-1.024015 1.592912,0 2.730706,0.948162 1.137793,0.910235 1.137793,2.616926 0,1.479132 -0.189632,2.806558 -0.227559,1.706691 -0.455117,2.578999 -0.265486,0.986088 -0.606824,2.427294 -0.265485,1.251573 -0.948161,3.603014 -0.11378,0.379264 -0.227559,1.099867 -0.03793,0.227559 -0.03793,0.303412 l 0.417191,0.455117 q 0.07585,-0.113779 1.061941,-1.972176 0.986088,-1.896323 2.123882,-3.754719 1.175725,-1.858397 2.465225,-3.906426 1.32742,-2.048029 2.46522,-3.603014 1.09986,-1.517058 2.19973,-2.541073 1.09987,-1.061941 2.69278,-1.061941 1.78254,0 2.99619,0.948162 1.25157,0.910235 1.25157,2.616926 0,2.616926 -0.26548,4.968366 -0.26549,2.351441 -0.79646,5.195926 -0.53097,2.844484 -0.79645,5.195925 -0.26549,2.313514 -0.26549,4.93044 0,2.048029 0.53097,3.337528 0.53097,1.2895 1.2895,1.2895 0.79646,0 1.66877,-0.341338 0.8723,-0.341338 1.78254,-0.872309 0.91023,-0.53097 1.78254,-1.213646 0.87231,-0.720603 1.66877,-1.479132 1.85839,-1.744618 3.67886,-3.944352 l 0.64475,8.950645 q -1.66876,1.327426 -3.33753,2.768631 -1.63083,1.403279 -3.48923,2.579 -1.82047,1.137793 -4.0202,1.896323 -2.19974,0.720602 -4.96837,0.720602 -1.36535,0 -2.31352,-0.872308 -0.91023,-0.910235 -1.47913,-2.503147 -0.56889,-1.592911 -0.83438,-3.754719 -0.22756,-2.161809 -0.22756,-4.702882 0,-2.389367 0.15171,-5.044219 0.18963,-2.692779 0.49304,-5.423484 l -0.5689,0 -7.699067,19.607981 q -0.986088,1.592911 -2.199735,2.161808 -1.213646,0.53097 -2.806558,0.53097 -1.213647,0 -1.934249,-0.644749 -0.720603,-0.682677 -1.137794,-1.706691 -0.379265,-1.061941 -0.530971,-2.313514 -0.113779,-1.251574 -0.113779,-2.427294 z"
       style="font-style:normal;font-variant:normal;font-weight:normal;font-stretch:normal;font-size:77.67339325px;font-family:Pacifico;-inkscape-font-specification:Pacifico;fill:#ff8080;fill-opacity:1"
       id="path4143" />
    <path
       d="m 143.51024,67.209962 q 1.09987,2.199734 1.63084,4.664954 0.56889,2.427294 0.56889,5.499337 0,2.237662 -0.49304,4.513249 -0.49305,2.275588 -1.44121,4.39947 -0.91023,2.123882 -2.27558,3.982278 -1.32743,1.858397 -3.07205,3.223749 -1.70669,1.365353 -3.75472,2.161809 -2.04803,0.796455 -4.36154,0.796455 -3.33753,0 -5.7269,-1.441205 -2.35144,-1.479132 -3.8685,-3.830573 -1.51705,-2.35144 -2.23766,-5.309704 -0.68267,-2.958264 -0.68267,-5.992381 0,-5.006293 1.25157,-8.609307 1.25157,-3.64094 3.56509,-6.295793 2.35144,-2.692778 5.72689,-4.209837 3.37546,-1.554985 7.5853,-1.554985 3.60301,0 6.75091,1.137794 3.14789,1.099867 5.8786,2.99619 2.76863,1.858397 5.12007,4.702882 2.38937,2.844484 4.4374,5.423484 l -0.72061,5.347631 q -1.02401,-1.365353 -2.76863,-2.958264 -1.74462,-1.592912 -3.71679,-3.527161 -1.93425,-1.93425 -3.83057,-3.261676 -1.89633,-1.365352 -3.26168,-2.275588 l -0.30341,0.417192 z m -11.71928,21.959421 q 1.2895,0 2.50315,-1.2895 1.21364,-1.327426 2.12388,-3.299602 0.91023,-2.010102 1.44121,-4.816661 0.56889,-2.844484 0.56889,-5.044219 0,-1.744617 -0.26548,-3.223749 -0.26549,-1.517059 -0.79646,-2.616926 -0.53097,-1.099868 -1.36535,-1.744617 -0.83438,-0.64475 -2.0101,-0.64475 -1.55499,0 -2.95827,1.327426 -1.40328,1.327426 -2.46522,3.413381 -1.06194,2.048029 -1.66876,4.551176 -0.60683,2.503146 -0.60683,5.651043 0,1.592911 0.30342,2.99619 0.30341,1.403279 0.94816,2.46522 0.64475,1.024015 1.70669,1.668764 1.06194,0.606824 2.54107,0.606824 z"
       style="font-style:normal;font-variant:normal;font-weight:normal;font-stretch:normal;font-size:77.67339325px;font-family:Pacifico;-inkscape-font-specification:Pacifico;fill:#ff8080;fill-opacity:1"
       id="path4145" />
    <path
       d="m 176.2787,67.209962 q 1.09987,2.199734 1.63084,4.664954 0.5689,2.427294 0.5689,5.499337 0,2.237662 -0.49305,4.513249 -0.49304,2.275588 -1.4412,4.39947 -0.91024,2.123882 -2.27559,3.982278 -1.32743,1.858397 -3.07204,3.223749 -1.7067,1.365353 -3.75472,2.161809 -2.04803,0.796455 -4.36155,0.796455 -3.33753,0 -5.72689,-1.441205 -2.35144,-1.479132 -3.8685,-3.830573 -1.51706,-2.35144 -2.23766,-5.309704 -0.68268,-2.958264 -0.68268,-5.992381 0,-5.006293 1.25157,-8.609307 1.25158,-3.64094 3.56509,-6.295793 2.35144,-2.692778 5.7269,-4.209837 3.37545,-1.554985 7.58529,-1.554985 3.60301,0 6.75091,1.137794 3.1479,1.099867 5.8786,2.99619 2.76863,1.858397 5.12007,4.702882 2.38937,2.844484 4.4374,5.423484 l -0.7206,5.347631 q -1.02402,-1.365353 -2.76864,-2.958264 -1.74461,-1.592912 -3.71679,-3.527161 -1.93425,-1.93425 -3.83057,-3.261676 -1.89632,-1.365352 -3.26168,-2.275588 l -0.30341,0.417192 z m -11.71928,21.959421 q 1.2895,0 2.50315,-1.2895 1.21365,-1.327426 2.12388,-3.299602 0.91024,-2.010102 1.44121,-4.816661 0.5689,-2.844484 0.5689,-5.044219 0,-1.744617 -0.26549,-3.223749 -0.26549,-1.517059 -0.79646,-2.616926 -0.53097,-1.099868 -1.36535,-1.744617 -0.83438,-0.64475 -2.0101,-0.64475 -1.55499,0 -2.95826,1.327426 -1.40328,1.327426 -2.46522,3.413381 -1.06195,2.048029 -1.66877,4.551176 -0.60682,2.503146 -0.60682,5.651043 0,1.592911 0.30341,2.99619 0.30341,1.403279 0.94816,2.46522 0.64475,1.024015 1.70669,1.668764 1.06194,0.606824 2.54107,0.606824 z"
       style="font-style:normal;font-variant:normal;font-weight:normal;font-stretch:normal;font-size:77.67339325px;font-family:Pacifico;-inkscape-font-specification:Pacifico;fill:#ff8080;fill-opacity:1"
       id="path4147" />
    <path
       d="m 217.31513,87.955736 q -3.64094,2.123882 -6.48542,3.716793 -2.84449,1.592912 -5.08215,2.654853 -2.19973,1.061941 -3.94435,1.592911 -1.70669,0.53097 -3.10997,0.53097 -2.88241,0 -5.08215,-1.744617 -2.19973,-1.744617 -3.67886,-5.006293 -1.47913,-3.299602 -2.23766,-7.964557 -0.72061,-4.664954 -0.72061,-10.50563 0,-2.275587 0.18964,-4.854587 0.18963,-2.578999 0.53097,-5.120072 -1.1378,-0.151706 -1.78255,-0.265485 -0.60682,-0.151706 -1.32742,-0.265485 -0.68268,-0.151706 -1.78255,-0.303412 -1.06194,-0.151706 -3.10997,-0.379265 -0.91023,-0.113779 -1.40328,-0.417191 -0.49304,-0.341338 -0.7206,-0.758529 -0.22756,-0.455118 -0.26548,-0.910235 -0.0379,-0.493044 -0.0379,-0.834382 0,-0.758529 0.75853,-1.137794 0.7206,-0.417191 1.89632,-0.606823 1.1378,-0.189633 2.50315,-0.189633 1.40328,-0.03793 2.65485,0 1.2895,0.03793 2.27559,0.07585 1.02401,0 1.40328,-0.07585 1.02401,-5.120072 2.579,-9.898806 1.59291,-4.816661 3.52716,-8.533454 1.97217,-3.75472 4.28569,-5.992381 2.31351,-2.275588 4.85459,-2.275588 1.63083,0 2.95826,0.910235 1.36535,0.910235 2.31351,2.427294 0.94816,1.517058 1.44121,3.565087 0.53097,2.010103 0.53097,4.209838 0,1.858396 -0.53097,3.944352 -0.53097,2.048028 -1.44121,4.209837 -0.91023,2.123882 -2.16181,4.323616 -1.21364,2.199735 -2.57899,4.361543 0.34133,0.03793 1.13779,0.03793 0.79646,0 1.82047,0.07585 1.06194,0.03793 2.27559,0.113779 1.21364,0.03793 2.35144,0.07585 1.13779,0.03793 2.12388,0.07585 0.98609,0.03793 1.63084,0.07585 0.75853,0.03793 1.09986,0.758529 0.34134,0.720603 0.34134,1.82047 0,1.327427 -0.75853,2.161809 -0.75853,0.834382 -1.66876,0.834382 l -14.56376,0 q -1.09987,1.517058 -2.23766,2.99619 -1.09987,1.441206 -2.04803,2.616926 -0.15171,2.351441 -0.26549,4.627028 -0.0379,0.986088 -0.0759,2.048029 -0.0379,1.024015 -0.0759,2.048029 -0.0379,1.024015 -0.0759,1.972176 0,0.948162 0,1.744618 0,2.048029 0.37927,3.451308 0.37926,1.403279 1.09987,2.313514 0.7206,0.872308 1.74461,1.289499 1.06194,0.379265 2.35144,0.379265 0.79646,0 1.97218,-0.379265 1.21365,-0.379264 2.61693,-1.024014 1.4412,-0.682676 2.99619,-1.592911 1.59291,-0.910235 3.10997,-1.972176 1.55498,-1.099868 2.95826,-2.275588 1.40328,-1.213647 2.54107,-2.46522 l 0,9.709174 z m -12.13646,-48.0149 q 0,-0.417191 -0.0759,-0.910235 -0.0379,-0.530971 -0.22756,-0.986088 -0.18963,-0.455118 -0.60682,-0.75853 -0.37926,-0.303411 -1.09987,-0.303411 -0.98609,0 -2.0101,1.744617 -0.98609,1.744617 -1.93425,4.475322 -0.91023,2.692779 -1.74462,5.954455 -0.79645,3.261676 -1.47913,6.333719 0.5689,0.07585 1.1378,0.151706 0.56889,0.03793 1.17572,0.113779 1.13779,-1.934249 2.35144,-4.171911 1.25157,-2.275587 2.23766,-4.437396 0.98609,-2.199734 1.63084,-4.096057 0.64475,-1.896324 0.64475,-3.10997 z"
       style="font-style:normal;font-variant:normal;font-weight:normal;font-stretch:normal;font-size:77.67339325px;font-family:Pacifico;-inkscape-font-specification:Pacifico;fill:#ff8080;fill-opacity:1"
       id="path4149" />
    <path
       d="m 227.51736,72.861004 q 1.55498,-2.048029 3.48923,-4.399469 1.93425,-2.351441 5.158,-5.423484 3.26167,-3.072044 5.3097,-4.39947 2.08596,-1.365352 3.90643,-1.365352 0.45512,0 1.02401,0.189632 0.5689,0.151706 1.06194,0.606823 0.53097,0.455118 0.87231,1.2895 0.34134,0.796456 0.34134,2.085955 0,2.579 -0.7206,5.04422 -0.7206,2.427293 -2.73071,5.916528 -2.0101,3.489234 -2.7307,6.030307 -0.68268,2.541073 -0.68268,5.309705 0,1.517058 0.45512,2.427293 0.45512,0.910235 1.17572,0.910235 0.91023,0 1.93425,-0.379264 1.02401,-0.379265 2.04803,-0.986088 1.02401,-0.606824 2.0101,-1.365353 0.98609,-0.796455 1.8584,-1.630838 2.08595,-1.934249 4.09605,-4.399469 l 0.64475,10.088439 q -0.68267,0.53097 -1.74461,1.327426 -1.02402,0.796455 -2.31352,1.706691 -1.25157,0.872308 -2.7307,1.782543 -1.47913,0.910235 -2.99619,1.630838 -1.47913,0.682676 -2.99619,1.137794 -1.47914,0.455117 -2.84449,0.455117 -2.08595,0 -3.64094,-1.099867 -1.51706,-1.137794 -2.50314,-2.844485 -0.98609,-1.744617 -1.47914,-3.792646 -0.49304,-2.048029 -0.49304,-3.868499 0,-1.213647 0.30341,-2.692779 0.34134,-1.517058 0.79646,-3.034116 0.49304,-1.517059 1.06194,-2.958265 0.60682,-1.441205 1.09987,-2.578999 0.53097,-1.137794 0.91023,-1.858397 0.37926,-0.720602 0.49304,-0.834382 l -0.79645,-0.113779 q -0.64475,0.417191 -2.19974,2.123882 -1.51705,1.706691 -3.4513,4.323616 -1.93425,2.579 -4.02021,5.840676 -2.04803,3.223749 -3.71679,6.675057 -0.83438,1.706691 -1.36535,2.99619 -0.53098,1.251573 -1.06195,2.085956 -0.49304,0.796455 -1.09986,1.213646 -0.60683,0.417191 -1.55499,0.417191 -1.25157,0 -1.97217,-0.720602 -0.72061,-0.720603 -1.09987,-1.896323 -0.37927,-1.213647 -0.49305,-2.730706 -0.11377,-1.517058 -0.11377,-3.109969 0,-2.541073 0.0379,-6.637131 0.0759,-4.133985 0.37927,-9.140278 0.30341,-5.006292 0.8723,-10.543556 0.5689,-5.537263 1.59292,-10.922821 1.06194,-5.423484 2.61692,-10.315997 1.59291,-4.93044 3.83057,-8.647234 2.27559,-3.754719 5.30971,-5.954454 3.03412,-2.199735 6.97847,-2.199735 2.04803,0 3.33753,0.606824 1.32742,0.606823 2.08595,1.70669 0.79646,1.099868 1.09987,2.654853 0.30341,1.517058 0.30341,3.413381 0,2.806558 -0.79645,6.21994 -0.79646,3.413381 -2.12389,7.092248 -1.2895,3.678867 -2.95826,7.471513 -1.66876,3.75472 -3.41338,7.319807 -1.74462,3.527161 -3.45131,6.675057 -1.66876,3.147897 -2.95826,5.537264 l 0.75853,0.53097 z m 3.37545,-23.438553 q 2.23766,-5.802749 3.22375,-9.785027 1.02401,-3.982278 1.02401,-5.878602 0,-2.882411 -0.75853,-2.882411 -0.98608,0 -2.92033,3.22375 -1.93425,3.223749 -4.55118,9.367836 -0.64475,2.085955 -1.21364,4.323616 -0.53098,2.237661 -0.98609,4.475323 -0.41719,2.199734 -0.79646,4.361543 -0.34134,2.123882 -0.60682,4.058131 -0.64475,4.513249 -0.98609,8.836866 1.02401,-2.389367 2.23766,-5.195926 1.21365,-2.806558 2.38937,-5.537263 1.17572,-2.768632 2.19973,-5.195925 1.06194,-2.46522 1.74462,-4.171911 z"
       style="font-style:normal;font-variant:normal;font-weight:normal;font-stretch:normal;font-size:77.67339325px;font-family:Pacifico;-inkscape-font-specification:Pacifico;fill:#ff8080;fill-opacity:1"
       id="path4151" />
    <path
       d="m 278.30088,88.372927 q -1.36535,1.251573 -3.41338,2.692779 -2.0101,1.403279 -4.36154,2.616926 -2.35144,1.17572 -4.81666,1.972176 -2.4273,0.796455 -4.62703,0.796455 -1.97218,0 -3.33753,-0.53097 -1.32743,-0.568897 -2.16181,-1.554985 -0.83438,-0.986088 -1.21364,-2.389367 -0.34134,-1.441206 -0.34134,-3.147896 0,-2.389367 0.53097,-5.57519 1.06194,-6.144087 1.36535,-6.902616 0.53097,-1.668765 2.12388,-7.39566 1.2895,-4.778734 1.59291,-6.21994 0.18964,-0.948161 1.06194,-1.706691 0.79646,-0.682676 1.78255,-1.099867 1.02401,-0.455118 2.08595,-0.64475 1.09987,-0.227559 1.97218,-0.227559 1.59291,0 2.16181,0.606824 0.5689,0.568897 0.5689,1.554985 0,0.834382 -0.37927,2.427293 -0.37926,1.554985 -0.94816,3.565088 -0.5689,1.972176 -1.44121,4.778734 -0.87231,2.768631 -1.4412,5.082146 -0.5689,2.275587 -0.94816,4.475322 -0.37927,2.161808 -0.37927,3.906426 0,1.70669 0.37927,2.730705 0.37926,0.986088 1.55498,0.986088 1.36535,0 3.03412,-0.948162 1.66876,-0.948161 3.37545,-2.275587 1.70669,-1.365353 3.33753,-2.806559 1.63084,-1.441205 2.88241,-2.46522 l 0,7.699072 z M 261.34775,48.625995 q 0,-0.872308 0.37927,-1.972176 0.37926,-1.099867 1.21365,-2.048029 0.8723,-0.986088 2.27558,-1.630837 1.44121,-0.682677 3.56509,-0.682677 1.32743,0 2.50315,0.303412 1.17572,0.303412 2.04803,0.948162 0.87231,0.606823 1.36535,1.630837 0.53097,1.024015 0.53097,2.427294 0,1.2895 -0.41719,2.503146 -0.41719,1.213647 -1.32743,2.161809 -0.91023,0.948161 -2.31351,1.554985 -1.36535,0.568897 -3.2996,0.568897 -3.33753,0 -4.93044,-1.554985 -1.59292,-1.592912 -1.59292,-4.209838 z"
       style="font-style:normal;font-variant:normal;font-weight:normal;font-stretch:normal;font-size:77.67339325px;font-family:Pacifico;-inkscape-font-specification:Pacifico;fill:#ff8080;fill-opacity:1"
       id="path4153" />
    <path
       d="m 288.54102,96.451263 q -3.56508,0 -6.25786,-1.289499 -2.65485,-1.2895 -4.4374,-3.451308 -1.78254,-2.199735 -2.69278,-5.04422 -0.87231,-2.882411 -0.87231,-6.030307 0,-2.123882 0.79646,-5.044219 0.79646,-2.958264 1.63084,-5.233852 0.87231,-2.275588 2.16181,-4.323617 1.2895,-2.085955 2.99619,-3.64094 1.74461,-1.592911 3.8685,-2.503147 2.1618,-0.948161 4.77873,-0.948161 2.12388,0 3.94435,0.682676 1.82047,0.682677 3.1479,1.93425 1.36535,1.213647 2.12388,2.958264 0.75853,1.744617 0.75853,3.906425 0,2.351441 -1.55499,5.271778 -1.51705,2.920338 -3.56508,5.006293 -2.04803,2.085956 -4.89252,3.716794 -2.80655,1.630838 -6.10616,2.541073 0.5689,1.024014 1.09987,1.70669 0.5689,0.682677 1.13779,1.061941 0.5689,0.379265 1.17572,0.530971 0.64475,0.151706 1.36536,0.151706 2.27559,0 4.77873,-0.910235 2.54107,-0.910236 4.93044,-2.275588 2.38937,-1.365353 4.51325,-2.958264 2.12388,-1.630838 3.60301,-3.072044 l 4.89252,5.082146 q -3.33753,3.451308 -7.09225,6.106161 -1.63084,1.137793 -3.52716,2.237661 -1.8584,1.099867 -3.94435,1.972176 -2.04803,0.834382 -4.28569,1.365352 -2.19974,0.493044 -4.47533,0.493044 z M 283.4968,78.625827 q 1.36536,0 2.95827,-0.682677 1.63084,-0.720603 2.99619,-1.82047 1.40328,-1.099867 2.7307,-2.958264 1.32743,-1.858397 1.32743,-3.072043 0,-1.706691 -0.64475,-2.806559 -0.60682,-1.099867 -1.51706,-1.099867 -1.63084,0 -2.80656,0.606823 -1.13779,0.606824 -1.93425,1.592912 -0.75852,0.948161 -1.25157,2.199735 -0.45512,1.213646 -1.09987,3.034117 -0.60682,1.82047 -0.68267,2.99619 -0.0759,1.17572 -0.0759,2.010103 z"
       style="font-style:normal;font-variant:normal;font-weight:normal;font-stretch:normal;font-size:77.67339325px;font-family:Pacifico;-inkscape-font-specification:Pacifico;fill:#ff8080;fill-opacity:1"
       id="path4155" />
    <path
       d="m 320.36131,30.610926 q 6.18202,0 10.99868,1.024015 4.81666,1.024014 8.41967,2.844484 3.64094,1.82047 6.14409,4.361543 2.50315,2.503147 4.05813,5.499337 1.55499,2.958264 2.23766,6.295793 0.7206,3.337528 0.7206,6.826763 0,4.778734 -1.06194,10.353924 -1.06194,5.57519 -3.07204,10.164292 -2.0101,4.589102 -4.96837,8.609306 -2.92033,4.020205 -6.71298,7.016396 -3.79265,2.99619 -8.34382,4.702881 -4.55118,1.74462 -9.82295,1.74462 -1.78255,0 -3.64095,-0.265488 -1.85839,-0.265485 -3.60301,-0.720603 -1.74462,-0.455117 -3.2996,-1.024014 -1.55499,-0.568897 -2.73071,-1.17572 -0.49304,-0.151706 -0.79645,-0.379265 -0.26549,-0.189632 -0.41719,-0.455118 -0.15171,-0.303411 -0.18964,-0.720602 -0.0379,-0.417191 -0.0379,-1.061941 0,-6.295793 0.30341,-12.894997 0.34134,-6.599205 1.32743,-13.539747 0.98608,-6.978469 2.84448,-12.288174 1.8584,-5.347631 4.93044,-9.86088 0.75853,-1.099867 4.89251,-1.099867 3.22375,0 4.62703,2.351441 -1.74461,2.35144 -2.92034,5.233851 -1.17572,2.882411 -1.97217,5.68897 -0.79646,2.768631 -1.32743,6.068233 -1.02401,6.371646 -0.98609,6.447499 0.11378,0.07585 -0.8723,7.281881 -0.37927,2.503146 -0.60683,4.361543 -0.18963,1.858396 -0.30341,3.261675 -0.0759,1.403279 -0.0759,2.730706 0,1.403279 0.0759,2.35144 0.11378,0.948162 0.45512,1.517059 0.37926,0.568897 1.09987,0.834382 0.75853,0.227559 2.0101,0.227559 3.79264,0 7.20603,-1.479132 3.41338,-1.517059 6.29579,-4.020205 2.88241,-2.541073 5.158,-5.878602 2.31351,-3.337529 3.90642,-7.699072 1.63084,-4.399469 2.50315,-8.230042 0.87231,-3.868499 0.87231,-7.433586 0,-4.39947 -1.44121,-7.850778 -1.4412,-3.489234 -4.05813,-5.878601 -2.579,-2.427294 -6.21994,-3.678867 -3.64094,-1.2895 -8.00248,-1.2895 -3.18582,0 -6.33372,0.379265 -3.10997,0.379264 -5.80275,1.17572 -2.65485,0.796456 -4.70288,2.048029 -2.0101,1.213647 -3.03412,2.920338 -2.76863,4.28569 -4.55117,6.63713 -1.78255,2.313514 -2.99619,2.313514 -1.66877,0 -1.66877,-3.830572 0,-3.716793 0.98609,-6.675057 0.94816,-2.958264 2.69278,-5.233852 1.70669,-2.313514 4.05813,-3.906426 2.38937,-1.630837 5.19593,-2.654852 2.84448,-1.061941 6.0303,-1.554985 3.18583,-0.493044 6.52335,-0.493044 z"
       style="font-style:normal;font-variant:normal;font-weight:normal;font-stretch:normal;font-size:77.67339325px;font-family:Pacifico;-inkscape-font-specification:Pacifico;fill:#ff8080;fill-opacity:1"
       id="path4157" />
    <path
       d="m 370.31046,96.451263 q -3.56508,0 -6.25786,-1.289499 -2.65485,-1.2895 -4.4374,-3.451308 -1.78254,-2.199735 -2.69278,-5.04422 -0.87231,-2.882411 -0.87231,-6.030307 0,-2.123882 0.79646,-5.044219 0.79646,-2.958264 1.63084,-5.233852 0.87231,-2.275588 2.16181,-4.323617 1.2895,-2.085955 2.99619,-3.64094 1.74461,-1.592911 3.8685,-2.503147 2.1618,-0.948161 4.77873,-0.948161 2.12388,0 3.94435,0.682676 1.82047,0.682677 3.1479,1.93425 1.36535,1.213647 2.12388,2.958264 0.75853,1.744617 0.75853,3.906425 0,2.351441 -1.55499,5.271778 -1.51705,2.920338 -3.56508,5.006293 -2.04803,2.085956 -4.89252,3.716794 -2.80655,1.630838 -6.10616,2.541073 0.5689,1.024014 1.09987,1.70669 0.5689,0.682677 1.13779,1.061941 0.5689,0.379265 1.17572,0.530971 0.64475,0.151706 1.36536,0.151706 2.27558,0 4.77873,-0.910235 2.54107,-0.910236 4.93044,-2.275588 2.38937,-1.365353 4.51325,-2.958264 2.12388,-1.630838 3.60301,-3.072044 l 4.89252,5.082146 q -3.33753,3.451308 -7.09225,6.106161 -1.63084,1.137793 -3.52716,2.237661 -1.8584,1.099867 -3.94435,1.972176 -2.04803,0.834382 -4.28569,1.365352 -2.19974,0.493044 -4.47533,0.493044 z m -5.04422,-17.825436 q 1.36536,0 2.95827,-0.682677 1.63084,-0.720603 2.99619,-1.82047 1.40328,-1.099867 2.7307,-2.958264 1.32743,-1.858397 1.32743,-3.072043 0,-1.706691 -0.64475,-2.806559 -0.60682,-1.099867 -1.51706,-1.099867 -1.63084,0 -2.80656,0.606823 -1.13779,0.606824 -1.93425,1.592912 -0.75852,0.948161 -1.25157,2.199735 -0.45512,1.213646 -1.09987,3.034117 -0.60682,1.82047 -0.68267,2.99619 -0.0759,1.17572 -0.0759,2.010103 z"
       style="font-style:normal;font-variant:normal;font-weight:normal;font-stretch:normal;font-size:77.67339325px;font-family:Pacifico;-inkscape-font-specification:Pacifico;fill:#ff8080;fill-opacity:1"
       id="path4159" />
    <path
       d="m 394.62135,96.451263 q -2.04803,0 -3.83058,-1.782543 -1.74461,-1.82047 -3.07204,-4.854587 -1.2895,-3.034117 -2.04803,-7.016396 -0.7206,-4.020205 -0.7206,-8.419674 0,-3.375455 0.49304,-7.319807 0.49305,-3.982279 1.44121,-8.192116 0.94816,-4.209837 2.23766,-8.457601 1.32742,-4.247764 2.95826,-8.154189 1.66877,-3.906426 3.60302,-7.281881 1.93425,-3.413381 4.05813,-5.916528 2.12388,-2.541073 4.43739,-3.982278 2.31352,-1.441206 4.70288,-1.441206 1.63084,0 2.69278,0.758529 1.06194,0.720603 1.66877,1.93425 0.60682,1.213647 0.83438,2.768632 0.26549,1.517058 0.26549,3.10997 0,3.565087 -0.83439,7.28188 -0.79645,3.678867 -2.19973,7.433587 -1.36535,3.716793 -3.18582,7.471513 -1.82047,3.754719 -3.79265,7.471512 -1.97218,3.678867 -3.98228,7.281881 -1.97218,3.565087 -3.71679,6.978469 -0.18963,0.379265 -0.41719,0.986088 -0.18964,0.606823 -0.37927,1.327426 -0.18963,0.682677 -0.37926,1.479132 -0.18964,0.796456 -0.30341,1.554985 l 0,0.530971 q 0,0.986088 0.18963,1.934249 0.22756,0.910235 0.53097,1.668764 0.30341,0.720603 0.64475,1.175721 0.34134,0.417191 0.64475,0.417191 0.7206,0 1.63084,-0.303412 0.94816,-0.303412 1.97217,-0.796456 1.06194,-0.53097 2.16181,-1.17572 1.09987,-0.682676 2.12388,-1.365352 2.38937,-1.592912 5.00629,-3.678867 l 3.10997,7.964557 q -3.37545,2.427293 -6.67505,4.323616 -1.44121,0.796456 -2.99619,1.592912 -1.51706,0.758529 -3.07205,1.365352 -1.55498,0.606824 -3.03411,0.986088 -1.47914,0.341338 -2.76863,0.341338 z m 0.0379,-30.341169 q 1.70669,-3.034117 3.60302,-6.826763 1.93424,-3.792646 3.64094,-7.812851 1.70669,-4.020205 2.95826,-8.002483 1.25157,-4.020205 1.59291,-7.471513 0,-1.099868 -0.0759,-1.858397 -0.0379,-0.796456 -0.34134,-0.796456 -1.09987,0 -2.38937,1.441206 -1.25157,1.403279 -2.54107,3.830573 -1.25157,2.427293 -2.42729,5.651042 -1.1378,3.22375 -2.04803,6.86469 -0.91024,3.64094 -1.44121,7.509439 -0.53097,3.830573 -0.53097,7.471513 z"
       style="font-style:normal;font-variant:normal;font-weight:normal;font-stretch:normal;font-size:77.67339325px;font-family:Pacifico;-inkscape-font-specification:Pacifico;fill:#ff8080;fill-opacity:1"
       id="path4161" />
    <path
       d="m 429.70332,88.372927 q -1.36535,1.251573 -3.41338,2.692779 -2.01011,1.403279 -4.36155,2.616926 -2.35144,1.17572 -4.81666,1.972176 -2.42729,0.796455 -4.62703,0.796455 -1.97217,0 -3.33752,-0.53097 -1.32743,-0.568897 -2.16181,-1.554985 -0.83438,-0.986088 -1.21365,-2.389367 -0.34134,-1.441206 -0.34134,-3.147896 0,-2.389367 0.53097,-5.57519 1.06194,-6.144087 1.36536,-6.902616 0.53097,-1.668765 2.12388,-7.39566 1.2895,-4.778734 1.59291,-6.21994 0.18963,-0.948161 1.06194,-1.706691 0.79646,-0.682676 1.78254,-1.099867 1.02402,-0.455118 2.08596,-0.64475 1.09987,-0.227559 1.97218,-0.227559 1.59291,0 2.1618,0.606824 0.5689,0.568897 0.5689,1.554985 0,0.834382 -0.37926,2.427293 -0.37927,1.554985 -0.94817,3.565088 -0.56889,1.972176 -1.4412,4.778734 -0.87231,2.768631 -1.44121,5.082146 -0.56889,2.275587 -0.94816,4.475322 -0.37926,2.161808 -0.37926,3.906426 0,1.70669 0.37926,2.730705 0.37927,0.986088 1.55499,0.986088 1.36535,0 3.03411,-0.948162 1.66877,-0.948161 3.37546,-2.275587 1.70669,-1.365353 3.33753,-2.806559 1.63084,-1.441205 2.88241,-2.46522 l 0,7.699072 z M 412.75019,48.625995 q 0,-0.872308 0.37926,-1.972176 0.37927,-1.099867 1.21365,-2.048029 0.87231,-0.986088 2.27559,-1.630837 1.4412,-0.682677 3.56509,-0.682677 1.32742,0 2.50314,0.303412 1.17572,0.303412 2.04803,0.948162 0.87231,0.606823 1.36535,1.630837 0.53098,1.024015 0.53098,2.427294 0,1.2895 -0.4172,2.503146 -0.41719,1.213647 -1.32742,2.161809 -0.91024,0.948161 -2.31352,1.554985 -1.36535,0.568897 -3.2996,0.568897 -3.33753,0 -4.93044,-1.554985 -1.59291,-1.592912 -1.59291,-4.209838 z"
       style="font-style:normal;font-variant:normal;font-weight:normal;font-stretch:normal;font-size:77.67339325px;font-family:Pacifico;-inkscape-font-specification:Pacifico;fill:#ff8080;fill-opacity:1"
       id="path4163" />
    <path
       d="m 434.97509,131.64702 q 2.38937,0 4.39947,-0.75853 2.0101,-0.75853 3.45131,-1.97218 1.44121,-1.21364 2.579,-2.99619 1.17572,-1.74461 1.89632,-3.52716 0.72061,-1.74461 1.25158,-3.8685 0.56889,-2.08595 0.83438,-3.75472 0.26548,-1.63083 0.41719,-3.41338 0.0759,-0.75853 0.22756,-2.16181 0.45512,-4.89251 0.83438,-6.67505 0.37926,-1.78255 1.40328,-2.46522 1.63084,-1.09987 5.27178,-3.451311 0.18963,-0.113779 0.53097,-0.341338 1.89632,-1.479132 4.62703,-4.209837 2.69278,-2.768632 3.75472,-4.892514 l -2.46522,-8.419674 q -5.65105,9.178204 -10.12637,12.553659 -1.25157,0.948161 -2.35144,1.592911 0.5689,-5.954454 0.83438,-9.671248 0.26549,-3.716793 1.09987,-6.75091 0.87231,-3.034117 0.98609,-5.082146 0.34134,-6.599204 -0.11378,-7.774924 -0.26549,-0.682677 -0.49305,-1.099868 -0.64475,-1.024014 -2.35144,-1.024014 l -1.66876,0.03793 q -0.49304,0 -0.87231,-0.03793 -0.37926,-0.03793 -0.68268,-0.151706 -0.30341,-0.113779 -0.49304,-0.151706 -0.18963,-0.07585 -0.41719,-0.303412 -0.22756,-0.227558 -0.34134,-0.303411 -0.0759,-0.07585 -0.30341,-0.379265 -0.22756,-0.341338 -0.34134,-0.455117 -0.91023,-1.099868 -2.88241,-1.099868 -4.36154,0 -8.98857,4.133985 -3.18582,2.844484 -5.19593,6.712983 -2.0101,3.830573 -3.98227,9.747101 -2.16181,6.333719 0.11377,11.074527 1.25158,2.654852 3.7168,4.437396 2.50314,1.782543 5.46141,1.782543 4.0202,0 8.26797,-4.058131 l -0.75853,4.551175 q -2.38937,2.085956 -4.13399,3.8685 -1.70669,1.82047 -4.36154,4.81666 -1.2895,1.44121 -2.54107,3.22375 -1.21365,1.82047 -1.78255,2.80656 -0.53097,0.98609 -1.97217,3.48923 -2.50315,4.47532 -2.19974,8.4576 0.18964,2.12388 1.02402,3.7168 0.87231,1.59291 2.23766,2.46522 1.40328,0.91023 3.03412,1.32742 1.63083,0.45512 3.56508,0.45512 z m -0.94816,-51.352429 q 0.34134,-2.237661 3.94435,-8.533454 3.33753,-5.916528 7.737,-5.916528 l -2.84448,12.629512 q -0.15171,3.299602 -1.47914,6.561278 -1.70669,4.133984 -4.28569,4.133984 -1.47913,0 -2.38936,-1.592912 -1.40328,-2.46522 -0.68268,-7.28188 z m 8.19212,25.865849 q -0.0379,0.53097 -0.22756,2.42729 -0.18963,1.93425 -0.41719,3.26168 -0.18964,1.32742 -0.53097,2.42729 -0.5689,2.04803 -0.98609,3.26168 -0.41719,1.25157 -0.94816,2.54107 -0.49305,1.2895 -0.94816,1.97217 -0.45512,0.68268 -1.06195,1.25158 -0.60682,0.60682 -1.32742,0.83438 -0.68268,0.22756 -1.59291,0.22756 -2.54108,0 -1.2895,-3.60301 1.51706,-4.32362 4.09606,-8.53346 2.57899,-4.17191 5.23385,-6.06823 z"
       style="font-style:normal;font-variant:normal;font-weight:normal;font-stretch:normal;font-size:77.67339325px;font-family:Pacifico;-inkscape-font-specification:Pacifico;fill:#ff8080;fill-opacity:1"
       id="path4165" />
    <path
       d="m 477.07348,72.861004 q 1.55498,-2.048029 3.48923,-4.399469 1.93425,-2.351441 5.158,-5.423484 3.26168,-3.072044 5.3097,-4.39947 2.08596,-1.365352 3.90643,-1.365352 0.45512,0 1.02401,0.189632 0.5689,0.151706 1.06195,0.606823 0.53097,0.455118 0.8723,1.2895 0.34134,0.796456 0.34134,2.085955 0,2.579 -0.7206,5.04422 -0.7206,2.427293 -2.73071,5.916528 -2.0101,3.489234 -2.7307,6.030307 -0.68268,2.541073 -0.68268,5.309705 0,1.517058 0.45512,2.427293 0.45512,0.910235 1.17572,0.910235 0.91024,0 1.93425,-0.379264 1.02401,-0.379265 2.04803,-0.986088 1.02401,-0.606824 2.0101,-1.365353 0.98609,-0.796455 1.8584,-1.630838 2.08595,-1.934249 4.09606,-4.399469 l 0.64475,10.088439 q -0.68268,0.53097 -1.74462,1.327426 -1.02402,0.796455 -2.31352,1.706691 -1.25157,0.872308 -2.7307,1.782543 -1.47913,0.910235 -2.99619,1.630838 -1.47913,0.682676 -2.99619,1.137794 -1.47913,0.455117 -2.84449,0.455117 -2.08595,0 -3.64094,-1.099867 -1.51705,-1.137794 -2.50314,-2.844485 -0.98609,-1.744617 -1.47913,-3.792646 -0.49305,-2.048029 -0.49305,-3.868499 0,-1.213647 0.30341,-2.692779 0.34134,-1.517058 0.79646,-3.034116 0.49304,-1.517059 1.06194,-2.958265 0.60682,-1.441205 1.09987,-2.578999 0.53097,-1.137794 0.91023,-1.858397 0.37927,-0.720602 0.49305,-0.834382 l -0.79646,-0.113779 q -0.64475,0.417191 -2.19973,2.123882 -1.51706,1.706691 -3.45131,4.323616 -1.93425,2.579 -4.02021,5.840676 -2.04803,3.223749 -3.71679,6.675057 -0.83438,1.706691 -1.36535,2.99619 -0.53097,1.251573 -1.06194,2.085956 -0.49305,0.796455 -1.09987,1.213646 -0.60682,0.417191 -1.55499,0.417191 -1.25157,0 -1.97217,-0.720602 -0.72061,-0.720603 -1.09987,-1.896323 -0.37926,-1.213647 -0.49304,-2.730706 -0.11378,-1.517058 -0.11378,-3.109969 0,-2.541073 0.0379,-6.637131 0.0759,-4.133985 0.37927,-9.140278 0.30341,-5.006292 0.87231,-10.543556 0.56889,-5.537263 1.59291,-10.922821 1.06194,-5.423484 2.61692,-10.315997 1.59292,-4.93044 3.83058,-8.647234 2.27558,-3.754719 5.3097,-5.954454 3.03412,-2.199735 6.97847,-2.199735 2.04803,0 3.33753,0.606824 1.32742,0.606823 2.08595,1.70669 0.79646,1.099868 1.09987,2.654853 0.30341,1.517058 0.30341,3.413381 0,2.806558 -0.79645,6.21994 -0.79646,3.413381 -2.12388,7.092248 -1.2895,3.678867 -2.95827,7.471513 -1.66876,3.75472 -3.41338,7.319807 -1.74462,3.527161 -3.45131,6.675057 -1.66876,3.147897 -2.95826,5.537264 l 0.75853,0.53097 z m 3.37545,-23.438553 q 2.23766,-5.802749 3.22375,-9.785027 1.02402,-3.982278 1.02402,-5.878602 0,-2.882411 -0.75853,-2.882411 -0.98609,0 -2.92034,3.22375 -1.93425,3.223749 -4.55118,9.367836 -0.64475,2.085955 -1.21364,4.323616 -0.53097,2.237661 -0.98609,4.475323 -0.41719,2.199734 -0.79646,4.361543 -0.34133,2.123882 -0.60682,4.058131 -0.64475,4.513249 -0.98609,8.836866 1.02402,-2.389367 2.23766,-5.195926 1.21365,-2.806558 2.38937,-5.537263 1.17572,-2.768632 2.19973,-5.195925 1.06195,-2.46522 1.74462,-4.171911 z"
       style="font-style:normal;font-variant:normal;font-weight:normal;font-stretch:normal;font-size:77.67339325px;font-family:Pacifico;-inkscape-font-specification:Pacifico;fill:#ff8080;fill-opacity:1"
       id="path4167" />
    <path
       d="m 536.35253,87.955736 q -3.64094,2.123882 -6.48542,3.716793 -2.84449,1.592912 -5.08215,2.654853 -2.19973,1.061941 -3.94435,1.592911 -1.70669,0.53097 -3.10997,0.53097 -2.88241,0 -5.08215,-1.744617 -2.19973,-1.744617 -3.67886,-5.006293 -1.47913,-3.299602 -2.23766,-7.964557 -0.72061,-4.664954 -0.72061,-10.50563 0,-2.275587 0.18964,-4.854587 0.18963,-2.578999 0.53097,-5.120072 -1.1378,-0.151706 -1.78255,-0.265485 -0.60682,-0.151706 -1.32742,-0.265485 -0.68268,-0.151706 -1.78255,-0.303412 -1.06194,-0.151706 -3.10997,-0.379265 -0.91023,-0.113779 -1.40328,-0.417191 -0.49304,-0.341338 -0.7206,-0.758529 -0.22756,-0.455118 -0.26548,-0.910235 -0.0379,-0.493044 -0.0379,-0.834382 0,-0.758529 0.75853,-1.137794 0.7206,-0.417191 1.89632,-0.606823 1.1378,-0.189633 2.50315,-0.189633 1.40328,-0.03793 2.65485,0 1.2895,0.03793 2.27559,0.07585 1.02401,0 1.40328,-0.07585 1.02401,-5.120072 2.579,-9.898806 1.59291,-4.816661 3.52716,-8.533454 1.97217,-3.75472 4.28569,-5.992381 2.31351,-2.275588 4.85458,-2.275588 1.63084,0 2.95827,0.910235 1.36535,0.910235 2.31351,2.427294 0.94816,1.517058 1.44121,3.565087 0.53097,2.010103 0.53097,4.209838 0,1.858396 -0.53097,3.944352 -0.53097,2.048028 -1.44121,4.209837 -0.91023,2.123882 -2.16181,4.323616 -1.21364,2.199735 -2.579,4.361543 0.34134,0.03793 1.1378,0.03793 0.79645,0 1.82047,0.07585 1.06194,0.03793 2.27559,0.113779 1.21364,0.03793 2.35144,0.07585 1.13779,0.03793 2.12388,0.07585 0.98609,0.03793 1.63084,0.07585 0.75853,0.03793 1.09986,0.758529 0.34134,0.720603 0.34134,1.82047 0,1.327427 -0.75853,2.161809 -0.75853,0.834382 -1.66876,0.834382 l -14.56376,0 q -1.09987,1.517058 -2.23766,2.99619 -1.09987,1.441206 -2.04803,2.616926 -0.15171,2.351441 -0.26549,4.627028 -0.0379,0.986088 -0.0758,2.048029 -0.0379,1.024015 -0.0759,2.048029 -0.0379,1.024015 -0.0759,1.972176 0,0.948162 0,1.744618 0,2.048029 0.37927,3.451308 0.37926,1.403279 1.09987,2.313514 0.7206,0.872308 1.74461,1.289499 1.06194,0.379265 2.35144,0.379265 0.79646,0 1.97218,-0.379265 1.21365,-0.379264 2.61693,-1.024014 1.4412,-0.682676 2.99619,-1.592911 1.59291,-0.910235 3.10997,-1.972176 1.55498,-1.099868 2.95826,-2.275588 1.40328,-1.213647 2.54107,-2.46522 l 0,9.709174 z m -12.13647,-48.0149 q 0,-0.417191 -0.0758,-0.910235 -0.0379,-0.530971 -0.22756,-0.986088 -0.18963,-0.455118 -0.60682,-0.75853 -0.37927,-0.303411 -1.09987,-0.303411 -0.98609,0 -2.0101,1.744617 -0.98609,1.744617 -1.93425,4.475322 -0.91023,2.692779 -1.74462,5.954455 -0.79645,3.261676 -1.47913,6.333719 0.5689,0.07585 1.13779,0.151706 0.5689,0.03793 1.17573,0.113779 1.13779,-1.934249 2.35144,-4.171911 1.25157,-2.275587 2.23766,-4.437396 0.98608,-2.199734 1.63083,-4.096057 0.64475,-1.896324 0.64475,-3.10997 z"
       style="font-style:normal;font-variant:normal;font-weight:normal;font-stretch:normal;font-size:77.67339325px;font-family:Pacifico;-inkscape-font-specification:Pacifico;fill:#ff8080;fill-opacity:1"
       id="path4169" />
  </g>
</svg>
