<?xml version="1.0" encoding="UTF-8" standalone="no"?>
<svg
   xmlns:dc="http://purl.org/dc/elements/1.1/"
   xmlns:cc="http://creativecommons.org/ns#"
   xmlns:rdf="http://www.w3.org/1999/02/22-rdf-syntax-ns#"
   xmlns:svg="http://www.w3.org/2000/svg"
   xmlns="http://www.w3.org/2000/svg"
   xmlns:sodipodi="http://sodipodi.sourceforge.net/DTD/sodipodi-0.dtd"
   xmlns:inkscape="http://www.inkscape.org/namespaces/inkscape"
   height="130.56857pt"
   viewBox="-128 0 128.87 130.56857"
   width="129.12219pt"
   id="svg2"
   version="1.1"
   inkscape:version="0.91 r13725"
   sodipodi:docname="logo-v.svg">
  <metadata
     id="metadata14">
    <rdf:RDF>
      <cc:Work
         rdf:about="">
        <dc:format>image/svg+xml</dc:format>
        <dc:type
           rdf:resource="http://purl.org/dc/dcmitype/StillImage" />
        <dc:title></dc:title>
      </cc:Work>
    </rdf:RDF>
  </metadata>
  <defs
     id="defs12" />
  <sodipodi:namedview
     pagecolor="#ffffff"
     bordercolor="#666666"
     borderopacity="1"
     objecttolerance="10"
     gridtolerance="10"
     guidetolerance="10"
     inkscape:pageopacity="0"
     inkscape:pageshadow="2"
     inkscape:window-width="1920"
     inkscape:window-height="1056"
     id="namedview10"
     showgrid="false"
     fit-margin-top="0"
     fit-margin-left="0"
     fit-margin-right="0"
     fit-margin-bottom="0"
     inkscape:zoom="1.4861796"
     inkscape:cx="47.713717"
     inkscape:cy="19.128051"
     inkscape:window-x="0"
     inkscape:window-y="24"
     inkscape:window-maximized="1"
     inkscape:current-layer="svg2" />
  <circle
     style="opacity:1;fill:#ff8080;fill-opacity:1;fill-rule:nonzero;stroke:#ffffff;stroke-width:0.18058133;stroke-linecap:round;stroke-linejoin:miter;stroke-miterlimit:4;stroke-dasharray:none;stroke-opacity:1"
     id="path4241"
     cx="-63.586308"
     cy="64.561096"
     r="64.470802" />
  <g
     inkscape:groupmode="layer"
     id="layer1"
     inkscape:label="Layer 1"
     transform="translate(-439.14897,411.55665)"
     style="display:inline" />
  <g
     inkscape:groupmode="layer"
     id="layer2"
     inkscape:label="Layer 2"
     transform="translate(-439.14897,411.55665)"
     style="display:inline">
    <path
       d="m 362.0691,-382.47548 25.0003,0 c 3.72738,0 6.76049,-4.10326 6.76049,-9.14779 -9.1e-4,-5.04362 -3.03378,-9.14687 -6.76049,-9.14687 l -25.0003,0 c -3.72738,0 -6.75981,4.10325 -6.76048,9.14778 0,5.04362 3.0331,9.14688 6.76048,9.14688 z m 0,0"
       id="path4-0"
       inkscape:connector-curvature="0"
       style="fill:#ffffff" />
    <path
       d="m 387.0694,-375.457 -25.0003,0 c -1.06033,0 -2.08758,-0.19009 -3.06686,-0.54192 -0.43427,2.63101 -1.13936,5.82497 -1.99843,8.61499 l -0.13643,0.44323 35.40375,0 -0.13643,-0.44323 c -0.85908,-2.79002 -1.56417,-5.98398 -1.99843,-8.61499 -0.97929,0.35183 -2.00654,0.54192 -3.06687,0.54192 z m 0,0"
       id="path6-2"
       inkscape:connector-curvature="0"
       style="fill:#ffffff" />
    <path
       d="m 394.36073,-359.92222 -39.58296,0 c -1.30009,5.19897 -3.70957,12.6736 -2.24696,17.16329 4.34798,13.34673 7.65865,27.39528 0,48.86525 -2.2861,6.40874 4.27849,12.90561 9.53829,12.90561 l 25.0003,0 c 5.25981,0 11.6857,-6.4096 9.5383,-12.90561 -5.38452,-16.28842 -6.78794,-32.57684 0,-48.86525 1.78106,-4.27387 -0.94688,-11.96432 -2.24697,-17.16329 z"
       id="path8-5"
       inkscape:connector-curvature="0"
       sodipodi:nodetypes="ccssssssc"
       style="fill:#ffffff" />
  </g>
</svg>
